<svg width="16" height="16" viewBox="0 0 16 16" fill="none" xmlns="http://www.w3.org/2000/svg">
    <path d="M7.31625 2.48828H2.40361C2.03135 2.48828 1.67434 2.63616 1.41111 2.89939C1.14788 3.16262 1 3.51963 1 3.89189V13.7172C1 14.0894 1.14788 14.4464 1.41111 14.7097C1.67434 14.9729 2.03135 15.1208 2.40361 15.1208H12.2289C12.6011 15.1208 12.9582 14.9729 13.2214 14.7097C13.4846 14.4464 13.6325 14.0894 13.6325 13.7172V8.80453" stroke="#008630" stroke-linecap="round" stroke-linejoin="round"/>
    <path d="M12.5799 1.43605C12.8591 1.15685 13.2378 1 13.6326 1C14.0274 1 14.4061 1.15685 14.6853 1.43605C14.9645 1.71524 15.1214 2.09391 15.1214 2.48875C15.1214 2.8836 14.9645 3.26227 14.6853 3.54146L8.01816 10.2086L5.21094 10.9104L5.91274 8.1032L12.5799 1.43605Z" stroke="#008630" stroke-linecap="round" stroke-linejoin="round"/>
</svg>
